# xmcd
#
# Track frame offsets:
#	150
#	12980
#	27883
#	41663
#	54325
#	69606
#	82638
#	92896
#	105542
#	121785
#
# Disc length: 1799 seconds
#
# Revision: 0
# Processed by: cddbd v1.5.1PL0 Copyright (c) Steve Scherf et al.
# Submitted via: audiograbber 1.83.01
#
DISCID=7007050a
DTITLE=Barbara Mandrell - Love's Ups And Downs
DYEAR=1978
DGENRE=
TTITLE0=(Your Love Has Lifted Me) High
TTITLE1=Don't Hand Me No Hand Me Down
TTITLE2=If I Were A River
TTITLE3=The Magician
TTITLE4=Woman To Woman
TTITLE5=Tonight
TTITLE6=Let The Rain Out
TTITLE7=A Fancy Place To Cry
TTITLE8=Walking Home In The Rain
TTITLE9=How Long
EXTD=
EXTT0=
EXTT1=
EXTT2=
EXTT3=
EXTT4=
EXTT5=
EXTT6=
EXTT7=
EXTT8=
EXTT9=
PLAYORDER=
